<svg width="135" height="24" viewBox="0 0 135 24" fill="none" xmlns="http://www.w3.org/2000/svg">
<g clip-path="url(#clip0_2237_7687)">
<path fill-rule="evenodd" clip-rule="evenodd" d="M127.329 15.6365C127.329 18.6094 128.617 19.8163 131.778 19.8163H135V16.8745H132.392C131.195 16.8745 130.704 16.3792 130.704 15.1715V7.27546H135V4.33369H130.704V0H128.095L127.789 2.63228C127.635 3.90215 127.205 4.33528 125.948 4.33528H124.26V7.27705H127.329V15.6373V15.6365ZM107.6 19.8171H110.975V11.4568C110.975 8.82451 112.663 6.96676 115.271 6.96676C117.879 6.96676 119.108 8.82451 119.108 11.4568V19.8171H122.483V10.9926C122.483 6.7506 120.365 4.02579 116.652 4.02579C114.013 4.02579 112.049 5.23345 110.975 7.30816V4.33528H107.6V19.8171ZM89.1597 12.0766C89.1597 7.24594 92.4736 4.02579 97.1386 4.02579C101.804 4.02579 105.117 7.24594 105.117 12.0766V12.8503H92.5961C92.8728 15.5129 94.7448 17.1856 97.1386 17.1856C99.0715 17.1856 100.361 16.3496 101.097 15.0183H104.657C103.644 18.1149 101.005 20.1274 97.1386 20.1274C92.4736 20.1274 89.1597 16.9072 89.1597 12.0766ZM92.6578 10.8992L101.68 10.8681C101.343 8.48391 99.5316 6.96676 97.1386 6.96676C94.8982 6.96676 93.0879 8.48391 92.6578 10.8992ZM72.08 19.8171H75.4556V11.4568C75.4556 8.82451 77.1434 6.96676 79.7522 6.96676C82.361 6.96676 83.5879 8.82451 83.5879 11.4568V19.8171H86.9635V10.9926C86.9635 6.7506 84.8457 4.02579 81.1325 4.02579C78.4937 4.02579 76.53 5.23345 75.4556 7.30816V4.33528H72.08V19.8171ZM61.6425 4.02579C66.6142 4.02579 69.9281 7.24594 69.9281 12.0766C69.9281 16.9072 66.6142 20.1274 61.6425 20.1274C56.6708 20.1274 53.3568 16.9072 53.3568 12.0766C53.3568 7.24594 56.6708 4.02579 61.6425 4.02579ZM61.6425 17.1856C64.5888 17.1856 66.5525 15.142 66.5525 12.0766C66.5525 9.01117 64.5888 6.96756 61.6425 6.96756C58.6961 6.96756 56.7324 9.01117 56.7324 12.0766C56.7324 15.142 58.6961 17.1856 61.6425 17.1856ZM38.6385 6.78091V4.33449H35.2629V23.9992H38.6393V17.3698C39.7437 19.0729 41.5232 20.1258 44.0095 20.1258C48.4594 20.1258 51.5275 16.9056 51.5275 12.075C51.5275 7.24435 48.4586 4.0242 44.0095 4.0242C41.524 4.0242 39.7437 5.07711 38.6393 6.78011L38.6385 6.78091ZM48.1511 12.0766C48.1511 15.142 46.1874 17.1856 43.241 17.1856C40.2947 17.1856 38.331 15.142 38.331 12.0766C38.331 9.01117 40.2947 6.96756 43.241 6.96756C46.1874 6.96756 48.1511 9.01117 48.1511 12.0766ZM33.1925 19.8171H28.8959L24.5993 13.9957L20.3027 19.8171H16.0061L22.1439 11.8899L16.3128 4.33449H20.6094L24.5985 10.0322L28.5876 4.33449H32.8842L27.0531 11.8899L33.1909 19.8171H33.1925ZM7.97894 4.02579C3.31395 4.02579 0 7.24594 0 12.0766C0 16.9072 3.31395 20.1274 7.97894 20.1274C11.8455 20.1274 14.4851 18.1149 15.4978 15.0183H11.938C11.2012 16.3496 9.9126 17.1856 7.97894 17.1856C5.58518 17.1856 3.71317 15.5137 3.43727 12.8503H15.9579V12.0766C15.9579 7.24594 12.6439 4.02579 7.97894 4.02579ZM12.5206 10.8689L3.49815 10.9C3.92741 8.48471 5.73854 6.96756 7.97815 6.96756C10.3719 6.96756 12.1822 8.48471 12.5198 10.8689H12.5206Z" fill="white"/>
</g>
<defs>
<clipPath id="clip0_2237_7687">
<rect width="135" height="24" fill="white"/>
</clipPath>
</defs>
</svg>
