<svg xmlns="http://www.w3.org/2000/svg" width="128" height="128" fill="none"><path fill="#000" d="M0 0h128v128H0z"/><path fill="url(#a)" d="M89.746 57.198V36.732l-.008-.006v-.014c0-.617-.5-1.114-1.114-1.114h-49.85c-.824 0-1.171 1.023-.665 1.529l9.461 9.465c.102.108.407.322.816.322h28.907c.554.037.994.48 1.031 1.034v5.288h-.003v4.092a1.111 1.111 0 0 1-1.085 1.018H38.825v.005s-.02-.003-.032-.003a.923.923 0 0 0-.923.924c0 .31.154.58.387.747l9.316 9.321c.273.273.398.318.821.318h17.463a1.11 1.11 0 0 1 1.05 1.026v9.4c-.05.54-.482.966-1.028 1.003H38.796a.92.92 0 0 0-.56 1.654h-.002l9.336 9.346c.108.106.42.316.819.316h17.425a1.115 1.115 0 0 0 1.091-1.114c0-.017-.006-.034-.006-.054v-9.08a1.112 1.112 0 0 1 1.069-1.068h9.25v-.005a1.116 1.116 0 0 0 1.106-1.114c0-.009 0-.02-.003-.029h.006V59.434c.02-.6.509-1.08 1.11-1.08h4.007v-.014h5.05c.044.006.087.014.135.014.617 0 1.114-.5 1.114-1.114 0-.014-.003-.025-.003-.037h.012l-.006-.005Z"/><defs><linearGradient id="a" x1="63.811" x2="63.811" y1="35.598" y2="92.403" gradientUnits="userSpaceOnUse"><stop stop-color="#fff"/><stop offset="1" stop-color="#999"/></linearGradient></defs></svg>