<svg width="114" height="34" viewBox="0 0 114 34" fill="none" xmlns="http://www.w3.org/2000/svg">
<g clip-path="url(#clip0_683_8441)">
<path d="M43.4563 22.2726C42.8508 22.0097 42.3719 21.6303 42.0213 21.1345C41.6691 20.6386 41.4884 20.0546 41.4775 19.3793H43.8054C43.8363 19.8327 43.9939 20.1916 44.2781 20.4544C44.5623 20.7189 44.9531 20.8496 45.449 20.8496C45.9449 20.8496 46.3542 20.7252 46.6446 20.4781C46.9335 20.2309 47.0787 19.9066 47.0787 19.5052C47.0787 19.1794 46.9798 18.9102 46.7836 18.6993C46.5875 18.4883 46.3418 18.323 46.0468 18.2003C45.7518 18.0791 45.3455 17.9453 44.828 17.7973C44.1252 17.5863 43.5521 17.3786 43.1134 17.1723C42.6731 16.9661 42.2962 16.656 41.9811 16.2389C41.666 15.8233 41.5084 15.2661 41.5084 14.5703C41.5084 13.917 41.6691 13.3472 41.9888 12.8623C42.3101 12.3775 42.7597 12.006 43.3389 11.7478C43.9182 11.4897 44.5809 11.3606 45.3254 11.3606C46.4423 11.3606 47.3505 11.6376 48.0488 12.1917C48.747 12.7458 49.1331 13.5172 49.2057 14.5089H46.8161C46.7944 14.1295 46.6369 13.8163 46.3434 13.5676C46.0484 13.3204 45.6575 13.1961 45.171 13.1961C44.7462 13.1961 44.4079 13.3062 44.1545 13.5282C43.9012 13.7502 43.7745 14.0713 43.7745 14.4931C43.7745 14.7891 43.8703 15.0331 44.0618 15.2283C44.2534 15.4235 44.4913 15.5825 44.7755 15.7021C45.0597 15.8233 45.4614 15.9634 45.9788 16.1208C46.6817 16.3318 47.2563 16.5427 47.7012 16.7536C48.1461 16.9646 48.5292 17.281 48.8489 17.7028C49.1532 18.1042 49.3139 18.6237 49.3293 19.2628C49.337 19.5776 49.3015 19.8956 49.2197 20.1994C48.974 21.0983 48.4226 21.772 47.5622 22.2175C46.9829 22.5181 46.2955 22.6677 45.4984 22.6677C44.7431 22.6677 44.0634 22.5355 43.4579 22.2726H43.4563Z" fill="black"/>
<path d="M53.6223 21.9404C52.7743 21.4556 52.1008 20.7834 51.6049 19.924C51.1075 19.0645 50.8604 18.0916 50.8604 17.0055C50.8604 15.9193 51.1091 14.9622 51.6049 14.1043C52.1008 13.2448 52.7743 12.5727 53.6223 12.0879C54.4704 11.603 55.4018 11.3606 56.4151 11.3606C57.4285 11.3606 58.3723 11.603 59.2157 12.0879C60.0591 12.5727 60.7264 13.2448 61.2177 14.1043C61.7089 14.9638 61.9545 15.9303 61.9545 17.0055C61.9545 18.0806 61.7089 19.0645 61.2177 19.924C60.7264 20.7834 60.056 21.4556 59.208 21.9404C58.3599 22.4253 57.4285 22.6677 56.4151 22.6677C55.4018 22.6677 54.4704 22.4253 53.6223 21.9404ZM58.1391 20.2404C58.6349 19.9397 59.0242 19.51 59.3022 18.9511C59.5818 18.3923 59.7208 17.7438 59.7208 17.0055C59.7208 16.2672 59.5818 15.6218 59.3022 15.0677C59.0226 14.5136 58.6349 14.0902 58.1391 13.7942C57.6417 13.4999 57.0686 13.3519 56.4167 13.3519C55.7648 13.3519 55.1886 13.4999 54.6866 13.7942C54.1846 14.0902 53.7938 14.5136 53.5157 15.0677C53.2361 15.6218 53.0971 16.2672 53.0971 17.0055C53.0971 17.7438 53.2361 18.3923 53.5157 18.9511C53.7953 19.51 54.1861 19.9397 54.6866 20.2404C55.1886 20.541 55.7648 20.6906 56.4167 20.6906C57.0686 20.6906 57.6432 20.5394 58.1391 20.2404Z" fill="black"/>
<path d="M65.6602 20.8024H69.23V22.5576H63.4883V11.5181H65.6617V20.8008L65.6602 20.8024Z" fill="black"/>
<path d="M72.7376 22.2726C72.132 22.0097 71.6532 21.6303 71.3025 21.1345C70.9503 20.6386 70.7696 20.0546 70.7588 19.3793H73.0867C73.1176 19.8327 73.2751 20.1916 73.5594 20.4544C73.8436 20.7189 74.2344 20.8496 74.7318 20.8496C75.2292 20.8496 75.637 20.7252 75.9274 20.4781C76.2178 20.2309 76.363 19.9066 76.363 19.5052C76.363 19.1794 76.2642 18.9102 76.068 18.6993C75.8718 18.4883 75.6262 18.323 75.3311 18.2003C75.0361 18.0791 74.6298 17.9453 74.1124 17.7973C73.408 17.5863 72.8364 17.3786 72.3977 17.1723C71.959 16.9661 71.5806 16.656 71.2655 16.2389C70.9503 15.8233 70.7928 15.2661 70.7928 14.5703C70.7928 13.917 70.9534 13.3472 71.2732 12.8623C71.5945 12.3775 72.044 12.006 72.6233 11.7478C73.2025 11.4897 73.8652 11.3606 74.6098 11.3606C75.7266 11.3606 76.6349 11.6376 77.3331 12.1917C78.0313 12.7458 78.4175 13.5172 78.4901 14.5089H76.1004C76.0803 14.1295 75.9228 13.8163 75.6277 13.5676C75.3327 13.3204 74.9419 13.1961 74.4568 13.1961C74.032 13.1961 73.6937 13.3062 73.4404 13.5282C73.1871 13.7502 73.0604 14.0713 73.0604 14.4931C73.0604 14.7891 73.1562 15.0331 73.3477 15.2283C73.5393 15.4235 73.7772 15.5825 74.0614 15.7021C74.3456 15.8233 74.7472 15.9634 75.2647 16.1208C75.9676 16.3318 76.5422 16.5427 76.9871 16.7536C77.432 16.9646 77.815 17.281 78.1348 17.7028C78.4422 18.109 78.6029 18.6347 78.6152 19.2833C78.6214 19.5965 78.5843 19.9129 78.5009 20.2152C78.2522 21.1061 77.7023 21.7736 76.8465 22.2175C76.2672 22.5181 75.5798 22.6677 74.7828 22.6677C74.0274 22.6677 73.3477 22.5355 72.7422 22.2726H72.7376Z" fill="black"/>
<path d="M88.0882 11.5181V13.3047H85.2011V22.556H83.0277V13.3047H80.1406V11.5181H88.0866H88.0882Z" fill="black"/>
<path d="M96.1032 14.1043C96.5836 13.2449 97.2417 12.5758 98.0743 12.0957C98.9069 11.6156 99.8414 11.3763 100.875 11.3763C102.086 11.3763 103.146 11.6927 104.057 12.3256C104.967 12.9584 105.603 13.8336 105.966 14.9512H103.468C103.22 14.4239 102.871 14.0288 102.421 13.7659C101.972 13.503 101.451 13.3708 100.861 13.3708C100.229 13.3708 99.6684 13.5219 99.1772 13.821C98.686 14.1217 98.3029 14.5467 98.0295 15.0945C97.7545 15.6423 97.6186 16.2861 97.6186 17.0244C97.6186 17.7627 97.7561 18.3923 98.0295 18.9464C98.3029 19.5005 98.686 19.9271 99.1772 20.2278C99.6684 20.5284 100.229 20.678 100.861 20.678C101.451 20.678 101.97 20.5442 102.421 20.275C102.871 20.0058 103.22 19.6076 103.468 19.0802H105.966C105.603 20.2089 104.97 21.0857 104.065 21.7138C103.159 22.3419 102.097 22.6551 100.875 22.6551C99.8399 22.6551 98.9069 22.4158 98.0743 21.9357C97.2417 21.4556 96.5836 20.7897 96.1032 19.935C95.6228 19.0802 95.3818 18.1105 95.3818 17.0244C95.3818 15.9382 95.6228 14.9654 96.1032 14.1075V14.1043Z" fill="black"/>
<path d="M109.888 13.3047V16.0721H113.535V17.8272H109.888V20.7536H114V22.556H107.715V11.5007H114V13.3031H109.888V13.3047Z" fill="black"/>
<path d="M90.2443 22.5182H88.0879L92.7885 11.5023H94.9449L90.2443 22.5182Z" fill="black"/>
<path d="M24.4379 1.95189L11.124 33.024C19.2987 35.9787 28.4434 32.026 31.9669 23.7995C35.4919 15.573 32.1198 6.05254 24.4364 1.95032L24.4379 1.95189ZM16.3791 26.1276L23.0106 10.5294C23.5466 11.0741 24.0085 11.6817 24.3885 12.3365L18.6143 25.9167C17.8852 26.0804 17.1345 26.1528 16.3791 26.1276ZM24.8982 20.6543C24.0842 22.5543 22.7109 24.0293 21.0612 24.9691L25.3725 14.7623C25.8436 16.6591 25.7262 18.7229 24.8982 20.6543Z" fill="black"/>
<path d="M8.46855 13.3457C10.3129 9.04193 15.0181 6.91684 19.3186 8.27218L22.4173 1.04054C14.1979 -2.03534 4.94815 1.9142 1.39839 10.1989C-2.15136 18.4837 1.2949 28.0828 9.09571 32.1347L12.1944 24.903C8.29555 22.6095 6.62725 17.6478 8.4701 13.3441L8.46855 13.3457Z" fill="black"/>
</g>
<defs>
<clipPath id="clip0_683_8441">
<rect width="114" height="34" fill="white"/>
</clipPath>
</defs>
</svg>
